<?xml version="1.0" encoding="UTF-8" standalone="no"?>
<svg
   xmlns:dc="http://purl.org/dc/elements/1.1/"
   xmlns:cc="http://creativecommons.org/ns#"
   xmlns:rdf="http://www.w3.org/1999/02/22-rdf-syntax-ns#"
   xmlns:svg="http://www.w3.org/2000/svg"
   xmlns="http://www.w3.org/2000/svg"
   xmlns:sodipodi="http://sodipodi.sourceforge.net/DTD/sodipodi-0.dtd"
   xmlns:inkscape="http://www.inkscape.org/namespaces/inkscape"
   width="1024"
   height="1024"
   viewBox="0 0 1024 1024"
   version="1.1"
   id="svg12"
   sodipodi:docname="door-col.svg"
   inkscape:version="0.92.5 (2060ec1f9f, 2020-04-08)"
   inkscape:export-filename="/home/leroy/projects/systemnauts/ships/nix/door-col.png"
   inkscape:export-xdpi="89.600601"
   inkscape:export-ydpi="89.600601">
  <metadata
     id="metadata18">
    <rdf:RDF>
      <cc:Work
         rdf:about="">
        <dc:format>image/svg+xml</dc:format>
        <dc:type
           rdf:resource="http://purl.org/dc/dcmitype/StillImage" />
        <dc:title></dc:title>
      </cc:Work>
    </rdf:RDF>
  </metadata>
  <defs
     id="defs16" />
  <sodipodi:namedview
     pagecolor="#ffffff"
     bordercolor="#666666"
     borderopacity="1"
     objecttolerance="10"
     gridtolerance="10"
     guidetolerance="10"
     inkscape:pageopacity="0"
     inkscape:pageshadow="2"
     inkscape:window-width="670"
     inkscape:window-height="538"
     id="namedview14"
     showgrid="false"
     inkscape:zoom="0.65186406"
     inkscape:cx="97.996686"
     inkscape:cy="192.41693"
     inkscape:window-x="1920"
     inkscape:window-y="0"
     inkscape:window-maximized="0"
     inkscape:current-layer="svg12"
     showguides="false"
     inkscape:snap-bbox="false"
     inkscape:object-paths="true" />
  <desc
     id="desc2">door-small.blend, (Blender 2.82 (sub 7))</desc>
  <polygon
     stroke="black"
     stroke-width="1"
     fill="rgb(204, 204, 204)"
     fill-opacity="0.25"
     points="973.834,0.000 923.668,0.000 923.667,1024.000 973.834,1024.000 "
     id="polygon4"
     style="fill:#b3b3b3" />
  <polygon
     stroke="black"
     stroke-width="1"
     fill="rgb(204, 204, 204)"
     fill-opacity="0.25"
     points="1024.000,494.031 973.834,494.031 973.834,1024.000 1024.000,1024.000 "
     id="polygon10"
     style="fill:#b3b3b3" />
  <g
     id="g921">
    <g
       transform="matrix(1,0,0,0.93556026,0,65.986289)"
       id="g867">
      <polygon
         points="0,0 0,1024 461.834,1024 461.834,0 "
         id="polygon6"
         style="fill:#b3b3b3;fill-opacity:0.25;stroke:#000000;stroke-width:1"
         transform="matrix(1,0,0,0.51664627,0,494.95422)" />
      <path
         style="fill:none;stroke:#000000;stroke-width:1px;stroke-linecap:butt;stroke-linejoin:miter;stroke-opacity:1"
         d="m 306.84005,494.95422 c 154.99395,0 154.99395,0 154.99395,0"
         id="path850"
         inkscape:connector-curvature="0" />
      <path
         style="fill:none;stroke:#000000;stroke-width:1px;stroke-linecap:butt;stroke-linejoin:miter;stroke-opacity:1"
         d="M 154.99396,494.95421 C 0,494.95421 0,494.95421 0,494.95421"
         id="path852"
         inkscape:connector-curvature="0" />
      <path
         style="fill:none;stroke:#000000;stroke-width:1px;stroke-linecap:butt;stroke-linejoin:miter;stroke-opacity:1"
         d="M 183.99398,584.20711 C 0,1024 0,1024 0,1024"
         id="path854"
         inkscape:connector-curvature="0" />
      <path
         style="fill:none;stroke:#000000;stroke-width:1px;stroke-linecap:butt;stroke-linejoin:miter;stroke-opacity:1"
         d="M 277.84003,584.20711 C 461.834,1024 461.834,1024 461.834,1024"
         id="path856"
         inkscape:connector-curvature="0" />
      <path
         style="fill:none;stroke:#000000;stroke-width:1px;stroke-linecap:butt;stroke-linejoin:miter;stroke-opacity:1"
         d="m 154.99396,494.95421 29.00002,89.2529 h 93.84605 l 29.00002,-89.25289 -151.84609,-1e-5"
         id="path859"
         inkscape:connector-curvature="0" />
    </g>
    <g
       transform="rotate(180,230.917,512)"
       id="g881">
      <polygon
         transform="matrix(1,0,0,0.51664627,0,494.95422)"
         style="fill:#b3b3b3;fill-opacity:0.25;stroke:#000000;stroke-width:1"
         id="polygon869"
         points="461.834,0 0,0 0,1024 461.834,1024 " />
      <path
         inkscape:connector-curvature="0"
         id="path871"
         d="m 306.84005,494.95422 c 154.99395,0 154.99395,0 154.99395,0"
         style="fill:none;stroke:#000000;stroke-width:1px;stroke-linecap:butt;stroke-linejoin:miter;stroke-opacity:1" />
      <path
         inkscape:connector-curvature="0"
         id="path873"
         d="M 154.99396,494.95421 C 0,494.95421 0,494.95421 0,494.95421"
         style="fill:none;stroke:#000000;stroke-width:1px;stroke-linecap:butt;stroke-linejoin:miter;stroke-opacity:1" />
      <path
         inkscape:connector-curvature="0"
         id="path875"
         d="M 183.99398,584.20711 C 0,1024 0,1024 0,1024"
         style="fill:none;stroke:#000000;stroke-width:1px;stroke-linecap:butt;stroke-linejoin:miter;stroke-opacity:1" />
      <path
         inkscape:connector-curvature="0"
         id="path877"
         d="M 277.84003,584.20711 C 461.834,1024 461.834,1024 461.834,1024"
         style="fill:none;stroke:#000000;stroke-width:1px;stroke-linecap:butt;stroke-linejoin:miter;stroke-opacity:1" />
      <path
         inkscape:connector-curvature="0"
         id="path879"
         d="m 154.99396,494.95421 29.00002,89.2529 h 93.84605 l 29.00002,-89.25289 -151.84609,-1e-5"
         style="fill:none;stroke:#000000;stroke-width:1px;stroke-linecap:butt;stroke-linejoin:miter;stroke-opacity:1" />
    </g>
    <path
       inkscape:connector-curvature="0"
       id="path883"
       d="m 157.29334,525.92118 c 0.39431,-1.05466 6.80918,-20.73894 14.25527,-43.74284 l 13.53834,-41.82526 45.9544,0.40558 45.95441,0.40559 13.55371,41.41968 c 7.45454,22.78082 13.56978,42.28259 13.58944,43.33725 0.0281,1.50799 -15.72774,1.91758 -73.76338,1.91758 -58.39894,0 -73.64951,-0.40015 -73.08219,-1.91758 z"
       style="fill:#b3b3b3;fill-opacity:1;fill-rule:nonzero;stroke:#000000;stroke-width:5.79803038;stroke-linejoin:round;stroke-miterlimit:4;stroke-dasharray:none;stroke-opacity:1;paint-order:markers stroke fill" />
    <path
       inkscape:connector-curvature="0"
       id="path885"
       d="m 183.01303,605.69242 c -0.9927,-2.74214 -7.2483,-20.69067 -13.90134,-39.88562 l -12.09642,-34.89991 h 73.57968 c 40.46883,0 73.57969,0.47796 73.57969,1.06213 0,0.58417 -6.04037,18.52471 -13.42304,39.86785 l -13.42305,38.80571 -46.25531,0.0178 -46.25531,0.0178 z"
       style="fill:#b3b3b3;fill-opacity:1;fill-rule:nonzero;stroke:#000000;stroke-width:5.79803038;stroke-linejoin:round;stroke-miterlimit:4;stroke-dasharray:none;stroke-opacity:1;paint-order:markers stroke fill" />
    <path
       inkscape:connector-curvature="0"
       id="path887"
       d="M 2.0273918,268.19874 2.0903899,8.5587177 5.7116418,16.99606 C 15.039453,38.729408 178.95976,430.93429 180.26207,434.63517 c 1.23643,3.51365 -0.8883,11.56021 -12.85565,48.68591 l -14.3369,44.47655 -75.552564,0.0206 -75.5525622,0.0205 z"
       style="fill:#b3b3b3;fill-opacity:1;fill-rule:nonzero;stroke:#000000;stroke-width:5.79803038;stroke-linejoin:round;stroke-miterlimit:4;stroke-dasharray:none;stroke-opacity:1;paint-order:markers stroke fill" />
    <path
       inkscape:connector-curvature="0"
       id="path889"
       d="M 157.01092,369.44684 C 84.779714,195.84069 9.1604837,15.543936 5.8097509,8.9422333 L 2.1112955,1.655438 H 230.77724 c 217.13056,0 228.61611,0.1354285 227.67843,2.6846088 -0.54312,1.4765348 -41.47051,99.5031032 -90.94976,217.8368232 l -89.96225,215.15222 h -46.1447 -46.1447 z"
       style="fill:#b3b3b3;fill-opacity:1;fill-rule:nonzero;stroke:#000000;stroke-width:5.79803038;stroke-linejoin:round;stroke-miterlimit:4;stroke-dasharray:none;stroke-opacity:1;paint-order:markers stroke fill" />
    <path
       inkscape:connector-curvature="0"
       id="path891"
       d="m 306.57821,522.47629 c -0.5533,-2.94937 -6.49791,-22.20562 -13.21025,-42.79168 -6.71234,-20.58607 -12.20064,-38.36505 -12.19624,-39.50885 0.004,-1.1438 7.51003,-20.02816 16.67916,-41.96525 9.16913,-21.93709 49.25762,-117.88823 89.08553,-213.22475 39.82791,-95.33651 72.70647,-173.631209 73.06348,-173.98821 0.35701,-0.357001 0.64909,115.78623 0.64909,258.09605 V 527.83876 H 384.1166 307.58422 Z"
       style="fill:#b3b3b3;fill-opacity:1;fill-rule:nonzero;stroke:#000000;stroke-width:5.79803038;stroke-linejoin:round;stroke-miterlimit:4;stroke-dasharray:none;stroke-opacity:1;paint-order:markers stroke fill" />
    <path
       inkscape:connector-curvature="0"
       id="path893"
       d="M 369.92837,815.66636 279.97478,614.2181 293.60877,574.72556 c 7.4987,-21.72089 13.634,-40.46591 13.634,-41.6556 0,-1.83255 11.72051,-2.16307 76.7031,-2.16307 h 76.70311 v 243.14885 c 0,133.73187 -0.17258,243.12866 -0.38351,243.10386 -0.21094,-0.025 -40.86263,-90.69668 -90.3371,-201.49324 z"
       style="fill:#b3b3b3;fill-opacity:1;fill-rule:nonzero;stroke:#000000;stroke-width:5.79803038;stroke-linejoin:round;stroke-miterlimit:4;stroke-dasharray:none;stroke-opacity:1;paint-order:markers stroke fill" />
    <path
       inkscape:connector-curvature="0"
       id="path895"
       d="M 2.4407688,1021.4233 C 3.5786112,1018.7116 180.68821,623.0908 183.05904,617.96491 l 1.95123,-4.21867 h 45.40181 45.4018 l 53.59463,120.04037 c 76.10602,170.46106 121.00575,270.58549 125.67664,280.25349 2.21637,4.5875 4.02977,8.5569 4.02977,8.8208 0,0.264 -102.93272,0.4799 -228.73939,0.4799 -182.39794,0 -228.5763772,-0.3884 -227.9347612,-1.9175 z"
       style="fill:#b3b3b3;fill-opacity:1;fill-rule:nonzero;stroke:#000000;stroke-width:5.79803038;stroke-linejoin:round;stroke-miterlimit:4;stroke-dasharray:none;stroke-opacity:1;paint-order:markers stroke fill" />
    <path
       inkscape:connector-curvature="0"
       id="path897"
       d="M 1.987302,772.13816 1.9643938,530.90689 H 77.592395 153.22039 l 14.13924,40.82804 14.13924,40.82803 L 91.754535,812.9662 2.0102101,1013.3694 Z"
       style="fill:#b3b3b3;fill-opacity:1;fill-rule:nonzero;stroke:#000000;stroke-width:5.79803038;stroke-linejoin:round;stroke-miterlimit:4;stroke-dasharray:none;stroke-opacity:1;paint-order:markers stroke fill" />
  </g>
  <g
     id="g998"
     transform="translate(461.834)">
    <g
       id="g966"
       transform="matrix(1,0,0,0.93556026,0,65.986289)">
      <polygon
         transform="matrix(1,0,0,0.51664627,0,494.95422)"
         style="fill:#b3b3b3;fill-opacity:0.25;stroke:#000000;stroke-width:1"
         id="polygon954"
         points="461.834,1024 461.834,0 0,0 0,1024 " />
      <path
         inkscape:connector-curvature="0"
         id="path956"
         d="m 306.84005,494.95422 c 154.99395,0 154.99395,0 154.99395,0"
         style="fill:none;stroke:#000000;stroke-width:1px;stroke-linecap:butt;stroke-linejoin:miter;stroke-opacity:1" />
      <path
         inkscape:connector-curvature="0"
         id="path958"
         d="M 154.99396,494.95421 C 0,494.95421 0,494.95421 0,494.95421"
         style="fill:none;stroke:#000000;stroke-width:1px;stroke-linecap:butt;stroke-linejoin:miter;stroke-opacity:1" />
      <path
         inkscape:connector-curvature="0"
         id="path960"
         d="M 183.99398,584.20711 C 0,1024 0,1024 0,1024"
         style="fill:none;stroke:#000000;stroke-width:1px;stroke-linecap:butt;stroke-linejoin:miter;stroke-opacity:1" />
      <path
         inkscape:connector-curvature="0"
         id="path962"
         d="M 277.84003,584.20711 C 461.834,1024 461.834,1024 461.834,1024"
         style="fill:none;stroke:#000000;stroke-width:1px;stroke-linecap:butt;stroke-linejoin:miter;stroke-opacity:1" />
      <path
         inkscape:connector-curvature="0"
         id="path964"
         d="m 154.99396,494.95421 29.00002,89.2529 h 93.84605 l 29.00002,-89.25289 -151.84609,-1e-5"
         style="fill:none;stroke:#000000;stroke-width:1px;stroke-linecap:butt;stroke-linejoin:miter;stroke-opacity:1" />
    </g>
    <g
       id="g980"
       transform="rotate(180,230.917,512)">
      <polygon
         points="0,1024 461.834,1024 461.834,0 0,0 "
         id="polygon968"
         style="fill:#b3b3b3;fill-opacity:0.25;stroke:#000000;stroke-width:1"
         transform="matrix(1,0,0,0.51664627,0,494.95422)" />
      <path
         style="fill:none;stroke:#000000;stroke-width:1px;stroke-linecap:butt;stroke-linejoin:miter;stroke-opacity:1"
         d="m 306.84005,494.95422 c 154.99395,0 154.99395,0 154.99395,0"
         id="path970"
         inkscape:connector-curvature="0" />
      <path
         style="fill:none;stroke:#000000;stroke-width:1px;stroke-linecap:butt;stroke-linejoin:miter;stroke-opacity:1"
         d="M 154.99396,494.95421 C 0,494.95421 0,494.95421 0,494.95421"
         id="path972"
         inkscape:connector-curvature="0" />
      <path
         style="fill:none;stroke:#000000;stroke-width:1px;stroke-linecap:butt;stroke-linejoin:miter;stroke-opacity:1"
         d="M 183.99398,584.20711 C 0,1024 0,1024 0,1024"
         id="path974"
         inkscape:connector-curvature="0" />
      <path
         style="fill:none;stroke:#000000;stroke-width:1px;stroke-linecap:butt;stroke-linejoin:miter;stroke-opacity:1"
         d="M 277.84003,584.20711 C 461.834,1024 461.834,1024 461.834,1024"
         id="path976"
         inkscape:connector-curvature="0" />
      <path
         style="fill:none;stroke:#000000;stroke-width:1px;stroke-linecap:butt;stroke-linejoin:miter;stroke-opacity:1"
         d="m 154.99396,494.95421 29.00002,89.2529 h 93.84605 l 29.00002,-89.25289 -151.84609,-1e-5"
         id="path978"
         inkscape:connector-curvature="0" />
    </g>
    <path
       style="fill:#b3b3b3;fill-opacity:1;fill-rule:nonzero;stroke:#000000;stroke-width:5.79803038;stroke-linejoin:round;stroke-miterlimit:4;stroke-dasharray:none;stroke-opacity:1;paint-order:markers stroke fill"
       d="m 157.29334,525.92118 c 0.39431,-1.05466 6.80918,-20.73894 14.25527,-43.74284 l 13.53834,-41.82526 45.9544,0.40558 45.95441,0.40559 13.55371,41.41968 c 7.45454,22.78082 13.56978,42.28259 13.58944,43.33725 0.0281,1.50799 -15.72774,1.91758 -73.76338,1.91758 -58.39894,0 -73.64951,-0.40015 -73.08219,-1.91758 z"
       id="path982"
       inkscape:connector-curvature="0" />
    <path
       style="fill:#b3b3b3;fill-opacity:1;fill-rule:nonzero;stroke:#000000;stroke-width:5.79803038;stroke-linejoin:round;stroke-miterlimit:4;stroke-dasharray:none;stroke-opacity:1;paint-order:markers stroke fill"
       d="m 183.01303,605.69242 c -0.9927,-2.74214 -7.2483,-20.69067 -13.90134,-39.88562 l -12.09642,-34.89991 h 73.57968 c 40.46883,0 73.57969,0.47796 73.57969,1.06213 0,0.58417 -6.04037,18.52471 -13.42304,39.86785 l -13.42305,38.80571 -46.25531,0.0178 -46.25531,0.0178 z"
       id="path984"
       inkscape:connector-curvature="0" />
    <path
       style="fill:#b3b3b3;fill-opacity:1;fill-rule:nonzero;stroke:#000000;stroke-width:5.79803038;stroke-linejoin:round;stroke-miterlimit:4;stroke-dasharray:none;stroke-opacity:1;paint-order:markers stroke fill"
       d="M 2.0273918,268.19874 2.0903899,8.5587177 5.7116418,16.99606 C 15.039453,38.729408 178.95976,430.93429 180.26207,434.63517 c 1.23643,3.51365 -0.8883,11.56021 -12.85565,48.68591 l -14.3369,44.47655 -75.552564,0.0206 -75.5525622,0.0205 z"
       id="path986"
       inkscape:connector-curvature="0" />
    <path
       style="fill:#b3b3b3;fill-opacity:1;fill-rule:nonzero;stroke:#000000;stroke-width:5.79803038;stroke-linejoin:round;stroke-miterlimit:4;stroke-dasharray:none;stroke-opacity:1;paint-order:markers stroke fill"
       d="M 157.01092,369.44684 C 84.779714,195.84069 9.1604837,15.543936 5.8097509,8.9422333 L 2.1112955,1.655438 H 230.77724 c 217.13056,0 228.61611,0.1354285 227.67843,2.6846088 -0.54312,1.4765348 -41.47051,99.5031032 -90.94976,217.8368232 l -89.96225,215.15222 h -46.1447 -46.1447 z"
       id="path988"
       inkscape:connector-curvature="0" />
    <path
       style="fill:#b3b3b3;fill-opacity:1;fill-rule:nonzero;stroke:#000000;stroke-width:5.79803038;stroke-linejoin:round;stroke-miterlimit:4;stroke-dasharray:none;stroke-opacity:1;paint-order:markers stroke fill"
       d="m 306.57821,522.47629 c -0.5533,-2.94937 -6.49791,-22.20562 -13.21025,-42.79168 -6.71234,-20.58607 -12.20064,-38.36505 -12.19624,-39.50885 0.004,-1.1438 7.51003,-20.02816 16.67916,-41.96525 9.16913,-21.93709 49.25762,-117.88823 89.08553,-213.22475 39.82791,-95.33651 72.70647,-173.631209 73.06348,-173.98821 0.35701,-0.357001 0.64909,115.78623 0.64909,258.09605 V 527.83876 H 384.1166 307.58422 Z"
       id="path990"
       inkscape:connector-curvature="0" />
    <path
       style="fill:#b3b3b3;fill-opacity:1;fill-rule:nonzero;stroke:#000000;stroke-width:5.79803038;stroke-linejoin:round;stroke-miterlimit:4;stroke-dasharray:none;stroke-opacity:1;paint-order:markers stroke fill"
       d="M 369.92837,815.66636 279.97478,614.2181 293.60877,574.72556 c 7.4987,-21.72089 13.634,-40.46591 13.634,-41.6556 0,-1.83255 11.72051,-2.16307 76.7031,-2.16307 h 76.70311 v 243.14885 c 0,133.73187 -0.17258,243.12866 -0.38351,243.10386 -0.21094,-0.025 -40.86263,-90.69668 -90.3371,-201.49324 z"
       id="path992"
       inkscape:connector-curvature="0" />
    <path
       style="fill:#b3b3b3;fill-opacity:1;fill-rule:nonzero;stroke:#000000;stroke-width:5.79803038;stroke-linejoin:round;stroke-miterlimit:4;stroke-dasharray:none;stroke-opacity:1;paint-order:markers stroke fill"
       d="M 2.4407688,1021.4233 C 3.5786112,1018.7116 180.68821,623.0908 183.05904,617.96491 l 1.95123,-4.21867 h 45.40181 45.4018 l 53.59463,120.04037 c 76.10602,170.46106 121.00575,270.58549 125.67664,280.25349 2.21637,4.5875 4.02977,8.5569 4.02977,8.8208 0,0.264 -102.93272,0.4799 -228.73939,0.4799 -182.39794,0 -228.5763772,-0.3884 -227.9347612,-1.9175 z"
       id="path994"
       inkscape:connector-curvature="0" />
    <path
       style="fill:#b3b3b3;fill-opacity:1;fill-rule:nonzero;stroke:#000000;stroke-width:5.79803038;stroke-linejoin:round;stroke-miterlimit:4;stroke-dasharray:none;stroke-opacity:1;paint-order:markers stroke fill"
       d="M 1.987302,772.13816 1.9643938,530.90689 H 77.592395 153.22039 l 14.13924,40.82804 14.13924,40.82803 L 91.754535,812.9662 2.0102101,1013.3694 Z"
       id="path996"
       inkscape:connector-curvature="0" />
  </g>
</svg>
